<svg xmlns="http://www.w3.org/2000/svg" xmlns:xlink="http://www.w3.org/1999/xlink" width="500" zoomAndPan="magnify" viewBox="0 0 375 374.999991" height="500" preserveAspectRatio="xMidYMid meet" version="1.0"><defs><g/><clipPath id="id1"><path d="M 112.910156 59.410156 L 266.660156 59.410156 L 266.660156 213.160156 L 112.910156 213.160156 Z M 112.910156 59.410156 " clip-rule="nonzero"/></clipPath><clipPath id="id2"><path d="M 127.390625 86.59375 L 249.640625 86.59375 L 249.640625 208.84375 L 127.390625 208.84375 Z M 127.390625 86.59375 " clip-rule="nonzero"/></clipPath></defs><g clip-path="url(#id1)"><path fill="#01aa88" d="M 189.785156 59.410156 C 147.328125 59.410156 112.910156 93.828125 112.910156 136.285156 C 112.910156 178.742188 147.328125 213.160156 189.785156 213.160156 C 232.242188 213.160156 266.660156 178.742188 266.660156 136.285156 C 266.660156 93.828125 232.242188 59.410156 189.785156 59.410156 " fill-opacity="1" fill-rule="nonzero"/></g><g clip-path="url(#id2)"><path fill="#1e4edd" d="M 230.777344 106.9375 C 230.777344 106.9375 236.328125 111.207031 244.285156 111.847656 C 245.183594 111.910156 245.632812 112.9375 245.054688 113.644531 C 242.519531 116.722656 235.8125 122.46875 223.523438 117.945312 C 223.523438 117.945312 227.632812 123.207031 232.347656 125.644531 C 233.117188 126.0625 233.117188 127.152344 232.347656 127.570312 C 228.273438 129.75 218.488281 133.539062 212.003906 124.425781 C 212.003906 124.425781 204.753906 135.398438 192.785156 125.933594 L 192.785156 204.769531 C 192.785156 206.375 191.855469 207.753906 190.507812 208.429688 C 189.929688 208.714844 189.289062 208.84375 188.582031 208.84375 C 186.367188 208.78125 184.636719 206.886719 184.636719 204.640625 L 184.636719 125.902344 L 184.1875 125.902344 C 172.183594 135.398438 164.964844 124.394531 164.964844 124.394531 C 158.484375 133.472656 148.730469 129.6875 144.625 127.539062 C 143.851562 127.121094 143.851562 125.996094 144.625 125.613281 C 149.371094 123.171875 153.445312 117.910156 153.445312 117.910156 C 141.191406 122.4375 134.484375 116.691406 131.949219 113.644531 C 131.371094 112.96875 131.820312 111.945312 132.71875 111.847656 C 140.675781 111.207031 146.226562 106.9375 146.226562 106.9375 C 132.429688 108.09375 128.675781 99.910156 127.679688 96.1875 C 127.457031 95.386719 128.164062 94.648438 128.964844 94.839844 C 134.324219 95.996094 140.902344 95.898438 147.863281 95.164062 C 151.265625 94.808594 154.730469 94.296875 158.226562 93.6875 C 173.949219 90.925781 174.976562 113.675781 184.21875 113.675781 L 184.667969 113.675781 L 184.667969 106.039062 C 180.785156 104.339844 178.1875 100.230469 178.699219 95.578125 C 179.246094 90.925781 183.03125 87.203125 187.683594 86.753906 C 189.160156 86.59375 190.601562 86.789062 191.917969 87.203125 C 195.929688 88.550781 198.847656 92.339844 198.847656 96.796875 C 198.847656 100.9375 196.378906 104.46875 192.816406 106.039062 L 192.816406 113.675781 C 202.058594 113.675781 203.054688 90.957031 218.808594 93.6875 C 229.460938 95.546875 240.113281 96.542969 248.070312 94.839844 C 248.871094 94.679688 249.578125 95.417969 249.355469 96.1875 C 248.328125 99.878906 244.574219 108.09375 230.777344 106.9375 Z M 230.777344 106.9375 " fill-opacity="1" fill-rule="nonzero"/></g><path fill="#30d1ff" d="M 223.105469 137.421875 C 223.105469 118.9375 208.1875 117.140625 202.605469 120.15625 C 201.609375 120.703125 200.933594 121.375 200.679688 122.148438 C 198.976562 127.25 201.511719 135.175781 210.882812 136.296875 C 210.882812 136.296875 216.914062 144.832031 188.742188 150 C 160.570312 144.863281 166.601562 136.296875 166.601562 136.296875 C 175.941406 135.175781 178.507812 127.25 176.804688 122.148438 C 176.675781 121.730469 176.421875 121.34375 176.035156 120.992188 C 171.898438 116.980469 154.378906 117.367188 154.378906 137.421875 C 154.378906 146.886719 161.4375 151.921875 170.324219 155.164062 C 161.40625 159.625 159.480469 165.847656 161.179688 172.234375 C 162.175781 175.988281 167.082031 181.121094 177.414062 184.941406 C 175.042969 186.542969 173.371094 188.46875 172.859375 190.941406 C 171.800781 195.945312 174.269531 199.507812 176.355469 201.496094 C 176.902344 202.011719 177.769531 201.496094 177.574219 200.757812 C 177.574219 200.726562 177.542969 200.695312 177.542969 200.628906 C 176.453125 196.203125 179.757812 191.613281 188.773438 188.375 C 197.917969 191.648438 201.191406 196.300781 199.972656 200.757812 C 199.78125 201.464844 200.679688 201.976562 201.191406 201.464844 C 203.277344 199.476562 205.746094 195.914062 204.6875 190.910156 C 204.175781 188.46875 202.476562 186.542969 200.132812 184.910156 C 210.464844 181.121094 215.375 175.957031 216.367188 172.203125 C 218.070312 165.785156 216.144531 159.59375 207.222656 155.132812 C 216.078125 151.957031 223.105469 146.917969 223.105469 137.421875 Z M 206.484375 168.863281 C 206.484375 174.511719 197.46875 176.984375 188.710938 179.933594 C 179.984375 176.984375 170.933594 174.511719 170.933594 168.863281 C 170.933594 163.921875 178.957031 161.964844 188.710938 159.878906 C 198.464844 161.964844 206.484375 163.890625 206.484375 168.863281 Z M 206.484375 168.863281 " fill-opacity="1" fill-rule="nonzero"/><path fill="#30a8ff" d="M 200.070312 184.941406 C 198.078125 185.679688 195.867188 186.351562 193.457031 186.960938 C 191.726562 187.410156 190.152344 187.890625 188.710938 188.40625 C 187.265625 187.890625 185.695312 187.410156 183.960938 186.960938 C 181.554688 186.351562 179.339844 185.679688 177.351562 184.941406 C 180.367188 182.886719 184.507812 181.347656 188.710938 179.902344 C 192.914062 181.347656 197.050781 182.886719 200.070312 184.941406 Z M 190.828125 150.351562 C 190.089844 150.222656 189.414062 150.09375 188.742188 150 C 188.066406 150.125 187.363281 150.253906 186.65625 150.351562 C 179.628906 151.507812 174.304688 153.175781 170.324219 155.164062 C 176.164062 157.28125 182.773438 158.597656 188.742188 159.878906 C 194.710938 158.597656 201.351562 157.28125 207.160156 155.164062 C 203.214844 153.175781 197.855469 151.539062 190.828125 150.351562 Z M 190.828125 150.351562 " fill-opacity="1" fill-rule="nonzero"/><path fill="#ffffff" d="M 166.023438 127.054688 C 165.253906 127.054688 164.550781 126.574219 164.261719 125.867188 C 163.972656 125.132812 164.195312 124.296875 164.804688 123.785156 C 165.414062 123.238281 166.34375 123.207031 167.019531 123.621094 C 167.660156 124.039062 168.015625 124.808594 167.855469 125.582031 C 167.691406 126.414062 166.921875 127.054688 166.023438 127.054688 Z M 212.808594 125.582031 C 212.96875 124.808594 212.648438 124.007812 211.972656 123.589844 C 211.300781 123.171875 210.402344 123.207031 209.789062 123.71875 C 209.179688 124.199219 208.957031 125.066406 209.214844 125.804688 C 209.46875 126.542969 210.207031 127.054688 210.976562 127.054688 C 211.84375 127.054688 212.613281 126.414062 212.808594 125.582031 Z M 212.808594 125.582031 " fill-opacity="1" fill-rule="nonzero"/><g fill="#000000" fill-opacity="1"><g transform="translate(116.246577, 236.465884)"><g><path d="M 12.046875 -0.609375 L 12.046875 -13.890625 L 10.15625 -10.359375 L 7.203125 -10.359375 L 5.40625 -13.828125 L 5.40625 -0.640625 C 5.40625 -0.285156 5.394531 -0.0507812 5.375 0.0625 C 5.300781 0.332031 4.921875 0.46875 4.234375 0.46875 C 2.285156 0.46875 1.3125 0.109375 1.3125 -0.609375 L 1.3125 -21.359375 C 1.3125 -22.097656 1.984375 -22.46875 3.328125 -22.46875 C 4.679688 -22.46875 5.492188 -22.101562 5.765625 -21.375 L 8.71875 -13.828125 L 11.8125 -21.40625 C 11.96875 -21.832031 12.15625 -22.113281 12.375 -22.25 C 12.601562 -22.394531 13.003906 -22.46875 13.578125 -22.46875 C 14.972656 -22.46875 15.679688 -22.085938 15.703125 -21.328125 L 16.171875 -12.609375 L 16.171875 -0.8125 C 16.171875 -0.226562 16.117188 0.128906 16.015625 0.265625 C 15.910156 0.398438 15.554688 0.46875 14.953125 0.46875 C 14.359375 0.46875 13.875 0.445312 13.5 0.40625 C 13.132812 0.363281 12.800781 0.257812 12.5 0.09375 C 12.195312 -0.0625 12.046875 -0.296875 12.046875 -0.609375 Z M 12.046875 -0.609375 "/></g></g></g><g fill="#000000" fill-opacity="1"><g transform="translate(133.703858, 236.465884)"><g><path d="M 6.640625 0.46875 C 4.554688 0.46875 3.109375 -0.09375 2.296875 -1.21875 C 1.484375 -2.351562 1.078125 -4.382812 1.078125 -7.3125 C 1.078125 -9.414062 1.257812 -11.019531 1.625 -12.125 C 2 -13.226562 2.5625 -13.976562 3.3125 -14.375 C 4.070312 -14.769531 5.179688 -14.96875 6.640625 -14.96875 C 8.097656 -14.96875 9.203125 -14.765625 9.953125 -14.359375 C 10.703125 -13.953125 11.253906 -13.191406 11.609375 -12.078125 C 11.960938 -10.960938 12.140625 -9.382812 12.140625 -7.34375 C 12.140625 -7.226562 12.140625 -7.109375 12.140625 -6.984375 C 12.140625 -6.867188 11.910156 -6.757812 11.453125 -6.65625 C 10.992188 -6.5625 10.441406 -6.515625 9.796875 -6.515625 L 5.296875 -6.515625 C 5.335938 -4.234375 5.503906 -2.9375 5.796875 -2.625 C 5.972656 -2.476562 6.253906 -2.40625 6.640625 -2.40625 C 9.191406 -2.40625 10.9375 -2.53125 11.875 -2.78125 C 11.914062 -2.800781 11.945312 -2.8125 11.96875 -2.8125 C 12.101562 -2.84375 12.210938 -2.757812 12.296875 -2.5625 C 12.390625 -2.375 12.4375 -1.914062 12.4375 -1.1875 C 12.4375 -0.46875 12.28125 -0.0703125 11.96875 0 C 11.164062 0.3125 9.390625 0.46875 6.640625 0.46875 Z M 5.296875 -11.140625 L 5.296875 -8.859375 L 8.25 -8.859375 C 8.164062 -11.117188 7.941406 -12.25 7.578125 -12.25 C 6.910156 -12.25 6.363281 -12.148438 5.9375 -11.953125 C 5.507812 -11.765625 5.296875 -11.492188 5.296875 -11.140625 Z M 5.296875 -11.140625 "/></g></g></g><g fill="#000000" fill-opacity="1"><g transform="translate(146.979582, 236.465884)"><g><path d="M 4.6875 0.46875 C 3.238281 0.46875 2.175781 -0.117188 1.5 -1.296875 C 0.832031 -2.484375 0.5 -4.535156 0.5 -7.453125 C 0.5 -10.378906 0.921875 -12.363281 1.765625 -13.40625 C 2.617188 -14.445312 4.222656 -14.96875 6.578125 -14.96875 L 7.984375 -14.96875 L 7.984375 -22 C 7.984375 -22.3125 8.320312 -22.46875 9 -22.46875 C 9.6875 -22.46875 10.253906 -22.421875 10.703125 -22.328125 C 11.148438 -22.242188 11.382812 -22.132812 11.40625 -22 L 11.90625 -12.671875 L 11.90625 0 C 11.90625 0.113281 11.894531 0.191406 11.875 0.234375 C 11.78125 0.390625 11.421875 0.46875 10.796875 0.46875 C 10.171875 0.46875 9.640625 0.421875 9.203125 0.328125 C 8.765625 0.242188 8.546875 0.132812 8.546875 0 L 7.984375 -0.90625 C 7.421875 -0.53125 7.019531 -0.265625 6.78125 -0.109375 C 6.144531 0.273438 5.445312 0.46875 4.6875 0.46875 Z M 6.578125 -12.171875 C 5.859375 -12.171875 5.363281 -11.875 5.09375 -11.28125 C 4.832031 -10.6875 4.703125 -9.679688 4.703125 -8.265625 C 4.703125 -6.847656 4.707031 -5.914062 4.71875 -5.46875 C 4.726562 -5.019531 4.742188 -4.503906 4.765625 -3.921875 C 4.804688 -2.867188 4.941406 -2.34375 5.171875 -2.34375 C 5.878906 -2.34375 6.816406 -2.691406 7.984375 -3.390625 L 7.984375 -12.171875 Z M 6.578125 -12.171875 "/></g></g></g><g fill="#000000" fill-opacity="1"><g transform="translate(160.167579, 236.465884)"><g><path d="M 1.375 0 L 1.375 -14.515625 C 1.375 -14.816406 1.722656 -14.96875 2.421875 -14.96875 C 3.128906 -14.96875 3.796875 -14.921875 4.421875 -14.828125 C 5.046875 -14.734375 5.359375 -14.628906 5.359375 -14.515625 L 5.359375 0 C 5.359375 0.113281 5.347656 0.191406 5.328125 0.234375 C 5.222656 0.390625 4.847656 0.46875 4.203125 0.46875 C 3.566406 0.46875 2.9375 0.414062 2.3125 0.3125 C 1.6875 0.21875 1.375 0.113281 1.375 0 Z M 3.1875 -18.25 C 1.78125 -18.25 1.078125 -18.953125 1.078125 -20.359375 C 1.078125 -21.765625 1.78125 -22.46875 3.1875 -22.46875 C 4.59375 -22.46875 5.296875 -21.765625 5.296875 -20.359375 C 5.296875 -18.953125 4.59375 -18.25 3.1875 -18.25 Z M 3.1875 -18.25 "/></g></g></g><g fill="#000000" fill-opacity="1"><g transform="translate(166.805433, 236.465884)"><g><path d="M 10.859375 -13.984375 C 10.992188 -13.898438 11.0625 -13.71875 11.0625 -13.4375 C 11.0625 -13.15625 10.992188 -12.78125 10.859375 -12.3125 C 10.597656 -11.457031 10.320312 -11.097656 10.03125 -11.234375 L 10 -11.234375 L 8.984375 -11.640625 C 8.410156 -11.890625 7.71875 -12.015625 6.90625 -12.015625 C 6.101562 -12.015625 5.585938 -11.679688 5.359375 -11.015625 C 5.140625 -10.359375 5.03125 -9.082031 5.03125 -7.1875 C 5.03125 -5.300781 5.171875 -4.03125 5.453125 -3.375 C 5.734375 -2.726562 6.273438 -2.40625 7.078125 -2.40625 C 8.222656 -2.40625 9.117188 -2.472656 9.765625 -2.609375 C 10.410156 -2.742188 10.742188 -2.8125 10.765625 -2.8125 C 10.898438 -2.84375 11.007812 -2.757812 11.09375 -2.5625 C 11.1875 -2.375 11.234375 -1.914062 11.234375 -1.1875 C 11.234375 -0.46875 11.078125 -0.0703125 10.765625 0 C 9.554688 0.3125 8.367188 0.46875 7.203125 0.46875 C 4.835938 0.46875 3.21875 -0.0859375 2.34375 -1.203125 C 1.476562 -2.328125 1.046875 -4.363281 1.046875 -7.3125 C 1.046875 -9.4375 1.234375 -11.039062 1.609375 -12.125 C 1.992188 -13.207031 2.601562 -13.953125 3.4375 -14.359375 C 4.28125 -14.765625 5.5 -14.96875 7.09375 -14.96875 C 8.695312 -14.96875 9.941406 -14.640625 10.828125 -13.984375 Z M 10.859375 -13.984375 "/></g></g></g><g fill="#000000" fill-opacity="1"><g transform="translate(178.823753, 236.465884)"><g><path d="M 1.078125 -10.859375 C 1.078125 -13.953125 1.320312 -16.328125 1.8125 -17.984375 C 2.300781 -19.640625 3.078125 -20.800781 4.140625 -21.46875 C 5.203125 -22.132812 6.738281 -22.46875 8.75 -22.46875 C 10.757812 -22.46875 12.296875 -22.132812 13.359375 -21.46875 C 14.421875 -20.800781 15.1875 -19.644531 15.65625 -18 C 16.132812 -16.351562 16.375 -13.972656 16.375 -10.859375 C 16.375 -6.585938 15.828125 -3.628906 14.734375 -1.984375 C 13.648438 -0.347656 11.65625 0.46875 8.75 0.46875 C 5.84375 0.46875 3.835938 -0.347656 2.734375 -1.984375 C 1.628906 -3.628906 1.078125 -6.585938 1.078125 -10.859375 Z M 5.96875 -16.296875 C 5.851562 -15.566406 5.785156 -14.828125 5.765625 -14.078125 C 5.742188 -13.328125 5.734375 -12.054688 5.734375 -10.265625 C 5.734375 -8.472656 5.789062 -6.972656 5.90625 -5.765625 C 6.019531 -4.554688 6.175781 -3.757812 6.375 -3.375 C 6.570312 -3 6.835938 -2.8125 7.171875 -2.8125 C 8.878906 -2.8125 10 -2.984375 10.53125 -3.328125 C 10.726562 -3.472656 10.914062 -3.695312 11.09375 -4 C 11.28125 -4.3125 11.410156 -4.632812 11.484375 -4.96875 C 11.566406 -5.300781 11.640625 -5.789062 11.703125 -6.4375 C 11.773438 -7.269531 11.8125 -8.773438 11.8125 -10.953125 C 11.8125 -13.128906 11.757812 -14.84375 11.65625 -16.09375 C 11.550781 -17.351562 11.394531 -18.210938 11.1875 -18.671875 C 10.976562 -19.128906 10.710938 -19.359375 10.390625 -19.359375 C 9.609375 -19.359375 8.976562 -19.320312 8.5 -19.25 C 8.019531 -19.1875 7.59375 -19.023438 7.21875 -18.765625 C 6.851562 -18.503906 6.582031 -18.210938 6.40625 -17.890625 C 6.226562 -17.566406 6.082031 -17.035156 5.96875 -16.296875 Z M 5.96875 -16.296875 "/></g></g></g><g fill="#000000" fill-opacity="1"><g transform="translate(196.281034, 236.465884)"><g><path d="M 8.828125 -14.96875 C 10.273438 -14.96875 11.332031 -14.519531 12 -13.625 C 12.675781 -12.726562 13.015625 -11.148438 13.015625 -8.890625 L 13.015625 0 C 13.015625 0.113281 13.003906 0.191406 12.984375 0.234375 C 12.890625 0.390625 12.515625 0.46875 11.859375 0.46875 C 11.203125 0.46875 10.53125 0.414062 9.84375 0.3125 C 9.164062 0.21875 8.828125 0.113281 8.828125 0 L 8.796875 -8.890625 C 8.796875 -11.078125 8.644531 -12.171875 8.34375 -12.171875 C 7.632812 -12.171875 6.695312 -11.816406 5.53125 -11.109375 L 5.53125 0 C 5.53125 0.113281 5.519531 0.191406 5.5 0.234375 C 5.40625 0.390625 5.03125 0.46875 4.375 0.46875 C 3.71875 0.46875 3.039062 0.414062 2.34375 0.3125 C 1.65625 0.21875 1.3125 0.113281 1.3125 0 L 1.3125 -14.515625 C 1.3125 -14.816406 1.703125 -14.96875 2.484375 -14.96875 C 3.710938 -14.96875 4.414062 -14.816406 4.59375 -14.515625 C 4.59375 -14.472656 4.601562 -14.453125 4.625 -14.453125 L 5.171875 -13.34375 C 6.816406 -14.425781 8.035156 -14.96875 8.828125 -14.96875 Z M 8.828125 -14.96875 "/></g></g></g><g fill="#000000" fill-opacity="1"><g transform="translate(210.550964, 236.465884)"><g><path d="M 5.03125 -0.609375 L 5.03125 -18.484375 L 1.375 -18.484375 C 0.90625 -18.503906 0.601562 -18.628906 0.46875 -18.859375 C 0.289062 -19.140625 0.203125 -19.628906 0.203125 -20.328125 C 0.203125 -21.441406 0.535156 -22 1.203125 -22 L 11.84375 -22 C 12.976562 -22 13.546875 -21.695312 13.546875 -21.09375 C 13.546875 -19.351562 13.078125 -18.484375 12.140625 -18.484375 L 8.859375 -18.515625 L 9.125 -12.578125 L 9.15625 -0.671875 C 9.15625 -0.296875 9.144531 -0.0507812 9.125 0.0625 C 9.050781 0.332031 8.671875 0.46875 7.984375 0.46875 C 6.015625 0.46875 5.03125 0.109375 5.03125 -0.609375 Z M 5.03125 -0.609375 "/></g></g></g><g fill="#000000" fill-opacity="1"><g transform="translate(224.294544, 236.465884)"><g><path d="M 6.640625 0.46875 C 4.554688 0.46875 3.109375 -0.09375 2.296875 -1.21875 C 1.484375 -2.351562 1.078125 -4.382812 1.078125 -7.3125 C 1.078125 -9.414062 1.257812 -11.019531 1.625 -12.125 C 2 -13.226562 2.5625 -13.976562 3.3125 -14.375 C 4.070312 -14.769531 5.179688 -14.96875 6.640625 -14.96875 C 8.097656 -14.96875 9.203125 -14.765625 9.953125 -14.359375 C 10.703125 -13.953125 11.253906 -13.191406 11.609375 -12.078125 C 11.960938 -10.960938 12.140625 -9.382812 12.140625 -7.34375 C 12.140625 -7.226562 12.140625 -7.109375 12.140625 -6.984375 C 12.140625 -6.867188 11.910156 -6.757812 11.453125 -6.65625 C 10.992188 -6.5625 10.441406 -6.515625 9.796875 -6.515625 L 5.296875 -6.515625 C 5.335938 -4.234375 5.503906 -2.9375 5.796875 -2.625 C 5.972656 -2.476562 6.253906 -2.40625 6.640625 -2.40625 C 9.191406 -2.40625 10.9375 -2.53125 11.875 -2.78125 C 11.914062 -2.800781 11.945312 -2.8125 11.96875 -2.8125 C 12.101562 -2.84375 12.210938 -2.757812 12.296875 -2.5625 C 12.390625 -2.375 12.4375 -1.914062 12.4375 -1.1875 C 12.4375 -0.46875 12.28125 -0.0703125 11.96875 0 C 11.164062 0.3125 9.390625 0.46875 6.640625 0.46875 Z M 5.296875 -11.140625 L 5.296875 -8.859375 L 8.25 -8.859375 C 8.164062 -11.117188 7.941406 -12.25 7.578125 -12.25 C 6.910156 -12.25 6.363281 -12.148438 5.9375 -11.953125 C 5.507812 -11.765625 5.296875 -11.492188 5.296875 -11.140625 Z M 5.296875 -11.140625 "/></g></g></g><g fill="#000000" fill-opacity="1"><g transform="translate(237.570268, 236.465884)"><g><path d="M 10.859375 -13.984375 C 10.992188 -13.898438 11.0625 -13.71875 11.0625 -13.4375 C 11.0625 -13.15625 10.992188 -12.78125 10.859375 -12.3125 C 10.597656 -11.457031 10.320312 -11.097656 10.03125 -11.234375 L 10 -11.234375 L 8.984375 -11.640625 C 8.410156 -11.890625 7.71875 -12.015625 6.90625 -12.015625 C 6.101562 -12.015625 5.585938 -11.679688 5.359375 -11.015625 C 5.140625 -10.359375 5.03125 -9.082031 5.03125 -7.1875 C 5.03125 -5.300781 5.171875 -4.03125 5.453125 -3.375 C 5.734375 -2.726562 6.273438 -2.40625 7.078125 -2.40625 C 8.222656 -2.40625 9.117188 -2.472656 9.765625 -2.609375 C 10.410156 -2.742188 10.742188 -2.8125 10.765625 -2.8125 C 10.898438 -2.84375 11.007812 -2.757812 11.09375 -2.5625 C 11.1875 -2.375 11.234375 -1.914062 11.234375 -1.1875 C 11.234375 -0.46875 11.078125 -0.0703125 10.765625 0 C 9.554688 0.3125 8.367188 0.46875 7.203125 0.46875 C 4.835938 0.46875 3.21875 -0.0859375 2.34375 -1.203125 C 1.476562 -2.328125 1.046875 -4.363281 1.046875 -7.3125 C 1.046875 -9.4375 1.234375 -11.039062 1.609375 -12.125 C 1.992188 -13.207031 2.601562 -13.953125 3.4375 -14.359375 C 4.28125 -14.765625 5.5 -14.96875 7.09375 -14.96875 C 8.695312 -14.96875 9.941406 -14.640625 10.828125 -13.984375 Z M 10.859375 -13.984375 "/></g></g></g><g fill="#000000" fill-opacity="1"><g transform="translate(249.588588, 236.465884)"><g><path d="M 8.828125 -14.96875 C 10.273438 -14.96875 11.332031 -14.519531 12 -13.625 C 12.675781 -12.726562 13.015625 -11.148438 13.015625 -8.890625 L 13.015625 0 C 13.015625 0.113281 13.003906 0.191406 12.984375 0.234375 C 12.890625 0.390625 12.515625 0.46875 11.859375 0.46875 C 11.203125 0.46875 10.53125 0.414062 9.84375 0.3125 C 9.164062 0.21875 8.828125 0.113281 8.828125 0 L 8.796875 -8.890625 C 8.796875 -11.078125 8.644531 -12.171875 8.34375 -12.171875 C 7.632812 -12.171875 6.695312 -11.816406 5.53125 -11.109375 L 5.53125 0 C 5.53125 0.113281 5.519531 0.191406 5.5 0.234375 C 5.40625 0.390625 5.03125 0.46875 4.375 0.46875 C 3.71875 0.46875 3.039062 0.414062 2.34375 0.3125 C 1.65625 0.21875 1.3125 0.113281 1.3125 0 L 1.3125 -22 C 1.3125 -22.3125 1.65625 -22.46875 2.34375 -22.46875 C 3.039062 -22.46875 3.640625 -22.421875 4.140625 -22.328125 C 4.648438 -22.242188 4.914062 -22.132812 4.9375 -22 L 5.46875 -13.546875 C 6.945312 -14.492188 8.066406 -14.96875 8.828125 -14.96875 Z M 8.828125 -14.96875 "/></g></g></g></svg>