<svg xmlns="http://www.w3.org/2000/svg" xmlns:xlink="http://www.w3.org/1999/xlink" version="1.1" width="1000" height="1000" viewBox="0 0 1000 1000" xml:space="preserve">
<desc>Created with Fabric.js 3.5.0</desc>
<defs>
</defs>
<rect x="0" y="0" width="100%" height="100%" fill="#ffffff"/>
<g transform="matrix(6.323 0 0 6.323 500.0025 500.0025)" id="580131" clip-path="url(#CLIPPATH_0)">
<clipPath id="CLIPPATH_0">
	<path transform="matrix(1 0 0 1 0 0) translate(-189.7852, -136.2852)" id="id1" d="M 112.910156 59.410156 L 266.660156 59.410156 L 266.660156 213.160156 L 112.910156 213.160156 Z M 112.910156 59.410156" stroke-linecap="round"/>
</clipPath>
<path style="stroke: none; stroke-width: 0; stroke-dasharray: none; stroke-linecap: butt; stroke-dashoffset: 0; stroke-linejoin: miter; stroke-miterlimit: 4; is-custom-font: none; font-file-url: none; fill: rgb(1,170,136); fill-rule: nonzero; opacity: 1;" transform=" translate(-189.7852, -136.2852)" d="M 189.785156 59.410156 C 147.328125 59.410156 112.910156 93.828125 112.910156 136.285156 C 112.910156 178.742188 147.328125 213.160156 189.785156 213.160156 C 232.242188 213.160156 266.660156 178.742188 266.660156 136.285156 C 266.660156 93.828125 232.242188 59.410156 189.785156 59.410156" stroke-linecap="round"/>
</g>
<g transform="matrix(6.323 0 0 6.323 491.9871 572.626)" id="661993" clip-path="url(#CLIPPATH_1)">
<clipPath id="CLIPPATH_1">
	<path transform="matrix(1 0 0 1 -0.002 -0.0522) translate(-188.5156, -147.7188)" id="id2" d="M 127.390625 86.59375 L 249.640625 86.59375 L 249.640625 208.84375 L 127.390625 208.84375 Z M 127.390625 86.59375" stroke-linecap="round"/>
</clipPath>
<path style="stroke: none; stroke-width: 0; stroke-dasharray: none; stroke-linecap: butt; stroke-dashoffset: 0; stroke-linejoin: miter; stroke-miterlimit: 4; is-custom-font: none; font-file-url: none; fill: rgb(30,78,221); fill-rule: nonzero; opacity: 1;" transform=" translate(-188.5176, -147.7709)" d="M 230.777344 106.9375 C 230.777344 106.9375 236.328125 111.207031 244.285156 111.847656 C 245.183594 111.910156 245.632812 112.9375 245.054688 113.644531 C 242.519531 116.722656 235.8125 122.46875 223.523438 117.945312 C 223.523438 117.945312 227.632812 123.207031 232.347656 125.644531 C 233.117188 126.0625 233.117188 127.152344 232.347656 127.570312 C 228.273438 129.75 218.488281 133.539062 212.003906 124.425781 C 212.003906 124.425781 204.753906 135.398438 192.785156 125.933594 L 192.785156 204.769531 C 192.785156 206.375 191.855469 207.753906 190.507812 208.429688 C 189.929688 208.714844 189.289062 208.84375 188.582031 208.84375 C 186.367188 208.78125 184.636719 206.886719 184.636719 204.640625 L 184.636719 125.902344 L 184.1875 125.902344 C 172.183594 135.398438 164.964844 124.394531 164.964844 124.394531 C 158.484375 133.472656 148.730469 129.6875 144.625 127.539062 C 143.851562 127.121094 143.851562 125.996094 144.625 125.613281 C 149.371094 123.171875 153.445312 117.910156 153.445312 117.910156 C 141.191406 122.4375 134.484375 116.691406 131.949219 113.644531 C 131.371094 112.96875 131.820312 111.945312 132.71875 111.847656 C 140.675781 111.207031 146.226562 106.9375 146.226562 106.9375 C 132.429688 108.09375 128.675781 99.910156 127.679688 96.1875 C 127.457031 95.386719 128.164062 94.648438 128.964844 94.839844 C 134.324219 95.996094 140.902344 95.898438 147.863281 95.164062 C 151.265625 94.808594 154.730469 94.296875 158.226562 93.6875 C 173.949219 90.925781 174.976562 113.675781 184.21875 113.675781 L 184.667969 113.675781 L 184.667969 106.039062 C 180.785156 104.339844 178.1875 100.230469 178.699219 95.578125 C 179.246094 90.925781 183.03125 87.203125 187.683594 86.753906 C 189.160156 86.59375 190.601562 86.789062 191.917969 87.203125 C 195.929688 88.550781 198.847656 92.339844 198.847656 96.796875 C 198.847656 100.9375 196.378906 104.46875 192.816406 106.039062 L 192.816406 113.675781 C 202.058594 113.675781 203.054688 90.957031 218.808594 93.6875 C 229.460938 95.546875 240.113281 96.542969 248.070312 94.839844 C 248.871094 94.679688 249.578125 95.417969 249.355469 96.1875 C 248.328125 99.878906 244.574219 108.09375 230.777344 106.9375 Z M 230.777344 106.9375" stroke-linecap="round"/>
</g>
<g transform="matrix(6.323 0 0 6.323 493.4062 652.1153)" id="510408">
<path style="stroke: none; stroke-width: 0; stroke-dasharray: none; stroke-linecap: butt; stroke-dashoffset: 0; stroke-linejoin: miter; stroke-miterlimit: 4; is-custom-font: none; font-file-url: none; fill: rgb(48,209,255); fill-rule: nonzero; opacity: 1;" transform=" translate(-188.7422, -160.3426)" d="M 223.105469 137.421875 C 223.105469 118.9375 208.1875 117.140625 202.605469 120.15625 C 201.609375 120.703125 200.933594 121.375 200.679688 122.148438 C 198.976562 127.25 201.511719 135.175781 210.882812 136.296875 C 210.882812 136.296875 216.914062 144.832031 188.742188 150 C 160.570312 144.863281 166.601562 136.296875 166.601562 136.296875 C 175.941406 135.175781 178.507812 127.25 176.804688 122.148438 C 176.675781 121.730469 176.421875 121.34375 176.035156 120.992188 C 171.898438 116.980469 154.378906 117.367188 154.378906 137.421875 C 154.378906 146.886719 161.4375 151.921875 170.324219 155.164062 C 161.40625 159.625 159.480469 165.847656 161.179688 172.234375 C 162.175781 175.988281 167.082031 181.121094 177.414062 184.941406 C 175.042969 186.542969 173.371094 188.46875 172.859375 190.941406 C 171.800781 195.945312 174.269531 199.507812 176.355469 201.496094 C 176.902344 202.011719 177.769531 201.496094 177.574219 200.757812 C 177.574219 200.726562 177.542969 200.695312 177.542969 200.628906 C 176.453125 196.203125 179.757812 191.613281 188.773438 188.375 C 197.917969 191.648438 201.191406 196.300781 199.972656 200.757812 C 199.78125 201.464844 200.679688 201.976562 201.191406 201.464844 C 203.277344 199.476562 205.746094 195.914062 204.6875 190.910156 C 204.175781 188.46875 202.476562 186.542969 200.132812 184.910156 C 210.464844 181.121094 215.375 175.957031 216.367188 172.203125 C 218.070312 165.785156 216.144531 159.59375 207.222656 155.132812 C 216.078125 151.957031 223.105469 146.917969 223.105469 137.421875 Z M 206.484375 168.863281 C 206.484375 174.511719 197.46875 176.984375 188.710938 179.933594 C 179.984375 176.984375 170.933594 174.511719 170.933594 168.863281 C 170.933594 163.921875 178.957031 161.964844 188.710938 159.878906 C 198.464844 161.964844 206.484375 163.890625 206.484375 168.863281 Z M 206.484375 168.863281" stroke-linecap="round"/>
</g>
<g transform="matrix(6.323 0 0 6.323 493.4057 708.1395)" id="439241">
<path style="stroke: none; stroke-width: 0; stroke-dasharray: none; stroke-linecap: butt; stroke-dashoffset: 0; stroke-linejoin: miter; stroke-miterlimit: 4; is-custom-font: none; font-file-url: none; fill: rgb(48,168,255); fill-rule: nonzero; opacity: 1;" transform=" translate(-188.7422, -169.2031)" d="M 200.070312 184.941406 C 198.078125 185.679688 195.867188 186.351562 193.457031 186.960938 C 191.726562 187.410156 190.152344 187.890625 188.710938 188.40625 C 187.265625 187.890625 185.695312 187.410156 183.960938 186.960938 C 181.554688 186.351562 179.339844 185.679688 177.351562 184.941406 C 180.367188 182.886719 184.507812 181.347656 188.710938 179.902344 C 192.914062 181.347656 197.050781 182.886719 200.070312 184.941406 Z M 190.828125 150.351562 C 190.089844 150.222656 189.414062 150.09375 188.742188 150 C 188.066406 150.125 187.363281 150.253906 186.65625 150.351562 C 179.628906 151.507812 174.304688 153.175781 170.324219 155.164062 C 176.164062 157.28125 182.773438 158.597656 188.742188 159.878906 C 194.710938 158.597656 201.351562 157.28125 207.160156 155.164062 C 203.214844 153.175781 197.855469 151.539062 190.828125 150.351562 Z M 190.828125 150.351562" stroke-linecap="round"/>
</g>
<g transform="matrix(6.323 0 0 6.323 491.8287 429.7747)" id="161564">
<path style="stroke: none; stroke-width: 0; stroke-dasharray: none; stroke-linecap: butt; stroke-dashoffset: 0; stroke-linejoin: miter; stroke-miterlimit: 4; is-custom-font: none; font-file-url: none; fill: rgb(255,255,255); fill-rule: nonzero; opacity: 1;" transform=" translate(-188.4928, -125.1788)" d="M 166.023438 127.054688 C 165.253906 127.054688 164.550781 126.574219 164.261719 125.867188 C 163.972656 125.132812 164.195312 124.296875 164.804688 123.785156 C 165.414062 123.238281 166.34375 123.207031 167.019531 123.621094 C 167.660156 124.039062 168.015625 124.808594 167.855469 125.582031 C 167.691406 126.414062 166.921875 127.054688 166.023438 127.054688 Z M 212.808594 125.582031 C 212.96875 124.808594 212.648438 124.007812 211.972656 123.589844 C 211.300781 123.171875 210.402344 123.207031 209.789062 123.71875 C 209.179688 124.199219 208.957031 125.066406 209.214844 125.804688 C 209.46875 126.542969 210.207031 127.054688 210.976562 127.054688 C 211.84375 127.054688 212.613281 126.414062 212.808594 125.582031 Z M 212.808594 125.582031" stroke-linecap="round"/>
</g>
</svg>